# xmcd
#
# Track frame offsets:
#	150
#	15110
#	34025
#	50648
#	68532
#	85564
#	102493
#	123849
#
# Disc length: 1929 seconds
#
# Revision: 0
# Processed by: cddbd v1.5.2PL0 Copyright (c) Steve Scherf et al.
# Submitted via: EasyCDDAExtractor 16.0.8.1
#
DISCID=53078708
DTITLE=Per Gessle - En Vacker Natt
DYEAR=2017
DGENRE=Pop
TTITLE0=Min Plats
TTITLE1=Första Pris (Duett Med Helena Josefsson)
TTITLE2=Småstadsprat (Duett Med Lars Winnerbäck)
TTITLE3=Enkel Resa
TTITLE4=Allt Gick Så Fort
TTITLE5=Tittar På Dej När Du Dansar
TTITLE6=Några Glas Rosé
TTITLE7=Far Too Close (Duett Med Savannah Church)
EXTD=
EXTT0=
EXTT1=
EXTT2=
EXTT3=
EXTT4=
EXTT5=
EXTT6=
EXTT7=
PLAYORDER=
